<?xml version="1.0" encoding="UTF-8"?>
<svg id="_레이어_2" data-name="레이어 2" xmlns="http://www.w3.org/2000/svg" viewBox="0 0 181 211">
  <defs>
    <style>
      .cls-1 {
        fill: #fff;
        opacity: .5;
        stroke: #b3b3b3;
        stroke-linecap: round;
        stroke-linejoin: round;
      }
    </style>
  </defs>
  <g id="Layer_4" data-name="Layer 4">
    <path class="cls-1" d="M179.24,113.63c.54-2.5.84-5.06.84-7.68,0-25.82-11.71-44.23-31.08-55.48-1.04-3.72-2.65-5.68-2.88-5.76-4.17-8.91-15.55-15.56-30.63-19.01,0-.07,0-.14,0-.21,0-13.81-11.19-25-25-25s-25,11.19-25,25c0,.07,0,.14,0,.21-15.08,3.45-26.46,10.1-30.63,19.01-.23.08-1.84,2.04-2.88,5.76C12.62,61.72.92,80.13.92,105.95c0,2.62.3,5.18.84,7.68-.71-.1-1.43.48-1.22,1.23l1.05,3.66h0s11.67,40.75,11.67,40.75h0s14.67,51.24,14.67,51.24h125.16l18.2-63.56,8.14-28.43s0,0,0,0l1.05-3.65c.21-.75-.51-1.32-1.22-1.23Z"/>
  </g>
</svg>