<?xml version="1.0" encoding="UTF-8"?>
<svg id="_레이어_2" data-name="레이어 2" xmlns="http://www.w3.org/2000/svg" viewBox="0 0 180 246.74">
  <defs>
    <style>
      .cls-1 {
        fill: #fff5d2;
      }

      .cls-1, .cls-2, .cls-3, .cls-4, .cls-5, .cls-6, .cls-7, .cls-8, .cls-9, .cls-10, .cls-11 {
        stroke-width: 0px;
      }

      .cls-2 {
        fill: #ffd54b;
      }

      .cls-3 {
        fill: #ffe693;
      }

      .cls-4 {
        fill: #ff5538;
      }

      .cls-5 {
        fill: #fbaa53;
      }

      .cls-6 {
        fill: #5fb4bc;
      }

      .cls-7 {
        fill: #f181a9;
      }

      .cls-8 {
        fill: #ffdd6f;
      }

      .cls-9 {
        fill: #926445;
      }

      .cls-10 {
        fill: #8c5316;
      }

      .cls-11 {
        fill: #845a3e;
      }
    </style>
  </defs>
  <g id="Layer_4" data-name="Layer 4">
    <g>
      <g>
        <rect class="cls-10" x="61.34" y="6.76" width="20" height="200" transform="translate(-43.82 49.97) rotate(-30)"/>
        <path class="cls-5" d="M27.1,50.14l7.01-27.55c.03-.06.05-.11.08-.17l-4.2-7.27-17.32,10,14.42,24.98Z"/>
        <polygon class="cls-5" points="50.57 90.78 57.63 63.01 45.05 41.22 37.98 68.98 50.57 90.78"/>
        <polygon class="cls-5" points="74.03 131.42 81.09 103.65 68.51 81.86 61.44 109.62 74.03 131.42"/>
        <g>
          <path class="cls-5" d="M108.35,190.86l4.33,7.5,17.32-10-14.56-25.23-7.01,27.55c-.03.06-.05.12-.08.18Z"/>
          <polygon class="cls-5" points="91.97 122.5 84.91 150.26 97.49 172.06 104.56 144.29 91.97 122.5"/>
        </g>
      </g>
      <g>
        <rect class="cls-10" x="75.54" y="-.82" width="20" height="200" transform="translate(-22.76 25.52) rotate(-15)"/>
        <path class="cls-5" d="M57.47,33.04l13.9-24.79s.08-.09.13-.14l-2.17-8.1-19.32,5.18,7.47,27.86Z"/>
        <polygon class="cls-5" points="69.61 78.37 83.62 53.38 77.11 29.06 63.1 54.06 69.61 78.37"/>
        <polygon class="cls-5" points="81.76 123.7 95.77 98.7 89.25 74.39 75.24 99.38 81.76 123.7"/>
        <g>
          <path class="cls-5" d="M99.52,190l2.24,8.36,19.32-5.18-7.54-28.14-13.9,24.79c-.04.05-.08.1-.12.16Z"/>
          <polygon class="cls-5" points="101.4 119.72 87.39 144.71 93.9 169.02 107.91 144.03 101.4 119.72"/>
        </g>
      </g>
      <g>
        <g>
          <g>
            <path class="cls-3" d="M139.43,36.37c-3.6-10.7-11.7-19.85-22.16-24.63-3.73,13.5-37.5,37.23-60.04,43.5C1.95,70.62,19.4,109.14,19.9,108.85c11.76-6.91,27.42-12.44,42.47-14.96,26.83-4.49,59.14-10.19,75.07-33.47,3.9-7.48,4.76-15.82,1.99-24.05Z"/>
            <path class="cls-2" d="M19.9,108.85c-.5.29.48-.3,0,0h0Z"/>
          </g>
          <g>
            <path class="cls-8" d="M137.44,60.42c-14.07,17.55-54.83,30.08-75.07,33.47-15.04,2.52-30.7,8.05-42.47,14.96-26.83,16.42-22.6,39.39-10.21,52.89,8.27-9,29.85-17.81,59.95-21.4,31.35-3.74,79.01-9.72,90.57-31.45,1.28-1.8,13.2-31.62-22.76-48.47Z"/>
            <g>
              <path class="cls-2" d="M160.2,108.89c.5.29-.48-.3,0,0h0Z"/>
              <path class="cls-2" d="M160.2,108.89c-15.5,20.31-60.19,26.41-91.39,30.16-37.61,4.53-54.3,14.25-59.13,22.69h160.8l-.02-.12c12.28-13.49,16.32-36.36-10.26-52.73Z"/>
            </g>
          </g>
        </g>
        <g>
          <path class="cls-11" d="M169.56,157.64l-8.34-7.27c-1.69-1.47-4.35-1.47-6.04,0l-8.34,7.27-8.34-7.27c-1.69-1.47-4.35-1.47-6.04,0l-8.34,7.27-8.34-7.27c-1.69-1.47-4.35-1.47-6.04,0l-8.34,7.27-8.34-7.27c-1.69-1.47-4.35-1.47-6.04,0l-8.34,7.27-8.34-7.27c-1.69-1.47-4.35-1.47-6.04,0l-8.34,7.27-8.34-7.27c-1.69-1.47-4.35-1.47-6.04,0l-8.34,7.27-8.34-7.27c-1.69-1.47-4.35-1.47-6.04,0l-8.34,7.27-8.59-7.48c-.79-.69-2.09,0-1.81.96l27.38,95.62h125.16l27.38-95.62c.28-.97-1.02-1.65-1.81-.96l-8.59,7.48Z"/>
          <path class="cls-9" d="M155.18,153.11l-6.2,5.4-5.34,85.03,23.56-85.24-5.96-5.19c-1.69-1.47-4.36-1.47-6.04,0Z"/>
          <path class="cls-9" d="M18.78,153.11l-5.96,5.19,23.56,85.24-5.34-85.03-6.21-5.4c-1.69-1.47-4.36-1.47-6.04,0Z"/>
          <path class="cls-9" d="M58.2,158.38l13.93,85.34,4.28-85.27-6.13-5.34c-1.69-1.47-4.35-1.47-6.04,0l-6.05,5.26Z"/>
          <path class="cls-9" d="M103.59,158.45l4.28,85.27,13.93-85.34-6.04-5.26c-1.69-1.47-4.36-1.47-6.04,0l-6.13,5.33Z"/>
          <path class="cls-9" d="M41.51,153.11l-6,5.23,18.75,85.31-.54-85.17-6.17-5.37c-1.69-1.47-4.35-1.47-6.04,0Z"/>
          <path class="cls-10" d="M1.08,154.78l11.67,40.75-4.42-36.98-5.44-4.74c-.79-.69-2.09,0-1.81.96Z"/>
          <path class="cls-9" d="M132.44,153.11l-6.17,5.37-.53,85.17,18.75-85.32-6-5.23c-1.69-1.47-4.35-1.47-6.04,0Z"/>
          <path class="cls-10" d="M177.1,153.82l-5.44,4.73-4.42,36.98,11.67-40.75c.28-.97-1.02-1.65-1.81-.96Z"/>
          <path class="cls-9" d="M80.89,158.41l9.11,85.33,9.11-85.33-6.09-5.3c-1.69-1.47-4.36-1.47-6.04,0l-6.08,5.3Z"/>
        </g>
      </g>
      <circle class="cls-1" cx="29.25" cy="127.49" r="3.75"/>
      <circle class="cls-4" cx="40.25" cy="80.49" r="3.75"/>
      <circle class="cls-4" cx="140.25" cy="94.49" r="3.75"/>
      <circle class="cls-1" cx="120.25" cy="45.49" r="3.75"/>
      <circle class="cls-6" cx="155.25" cy="135.49" r="3.75"/>
      <circle class="cls-6" cx="66.42" cy="116.99" r="3.75"/>
      <circle class="cls-7" cx="81.75" cy="67.49" r="3.75"/>
      <circle class="cls-7" cx="104.58" cy="107.49" r="3.75"/>
    </g>
  </g>
</svg>