<?xml version="1.0" encoding="UTF-8"?>
<svg id="_레이어_2" data-name="레이어 2" xmlns="http://www.w3.org/2000/svg" viewBox="0 0 181 247.74">
  <defs>
    <style>
      .cls-1 {
        fill: #fff;
        opacity: .5;
        stroke: #b3b3b3;
        stroke-linecap: round;
        stroke-linejoin: round;
      }
    </style>
  </defs>
  <g id="Layer_4" data-name="Layer 4">
    <path class="cls-1" d="M178.65,150.66l-.7.61c5.49-13.02,3.09-29.35-17.25-41.88h0c.25.15.13.07,0,0,1.29-1.83,13.18-31.62-22.77-48.47,3.9-7.48,4.76-15.82,1.99-24.05-3.6-10.7-11.7-19.85-22.16-24.63-2.52,9.13-18.78,22.92-36,32.84l-3.84-14.33-.32-1.2h0l-5.62-20.96h0l-2.17-8.1-19.32,5.18,12.91,48.2c-1.95.72-3.86,1.36-5.69,1.87-1.2.33-2.35.68-3.48,1.04l-8.7-15.06h0s-10.85-18.79-10.85-18.79h0s-4.2-7.27-4.2-7.27l-17.32,10,14.42,24.98h0l8.28,14.35c-28.05,17.76-15.97,44.47-15.49,44.36-.12.07-.25.15,0,0h0C-.1,121.89-2.46,138.26,3.09,151.3l-.74-.64c-.79-.69-2.09,0-1.81.96l1.05,3.65s0,0,0,0l11.67,40.75v-.02s14.67,51.23,14.67,51.23h125.16l14.67-51.24v.02s11.66-40.75,11.66-40.75c0,0,0,0,0,0l1.05-3.65c.28-.97-1.02-1.65-1.81-.96Z"/>
  </g>
</svg>