<?xml version="1.0" encoding="UTF-8"?>
<svg id="_레이어_2" data-name="레이어 2" xmlns="http://www.w3.org/2000/svg" viewBox="0 0 181 246">
  <defs>
    <style>
      .cls-1 {
        fill: #fff;
        opacity: .5;
        stroke: #b3b3b3;
        stroke-linecap: round;
        stroke-linejoin: round;
      }
    </style>
  </defs>
  <g id="Layer_4" data-name="Layer 4">
    <path class="cls-1" d="M178.65,148.92l-.7.61c5.49-13.02,3.09-29.35-17.25-41.88h0c.25.15.13.07,0,0,1.29-1.83,13.18-31.62-22.77-48.47,3.9-7.48,4.76-15.82,1.99-24.05-3.6-10.7-11.7-19.85-22.16-24.63-1.32,4.77-6.39,10.81-13.38,16.9-1.77-9.4-6.34-18.37-12.57-22.72-12.8-8.93-26.26-2.08-35.17,6.82-8.91,8.91-15.98,22.11-6.98,35.01,1.97,2.82,4.92,5.32,8.43,7.37-.12.04-.25.08-.38.11C2.57,69.34,19.83,107.73,20.4,107.6c-.12.07-.25.15,0,0h0C-.1,120.15-2.46,136.52,3.09,149.56l-.74-.64c-.79-.69-2.09,0-1.81.96l1.05,3.65s0,0,0,0l11.67,40.75v-.02s14.67,51.23,14.67,51.23h125.16l14.67-51.24v.02s11.66-40.75,11.66-40.75c0,0,0,0,0,0l1.05-3.65c.28-.97-1.02-1.65-1.81-.96Z"/>
  </g>
</svg>