<?xml version="1.0" encoding="UTF-8"?>
<svg id="_레이어_2" data-name="레이어 2" xmlns="http://www.w3.org/2000/svg" viewBox="0 0 180 210">
  <defs>
    <style>
      .cls-1 {
        fill: #efaf46;
      }

      .cls-1, .cls-2, .cls-3, .cls-4, .cls-5 {
        stroke-width: 0px;
      }

      .cls-2 {
        fill: #fff5d2;
      }

      .cls-3 {
        fill: #d79133;
      }

      .cls-4 {
        fill: #ff7760;
      }

      .cls-5 {
        fill: #ff5538;
      }
    </style>
  </defs>
  <g id="Layer_4" data-name="Layer 4">
    <g>
      <path class="cls-1" d="M179.58,105.45c0,46.28-89.58,74.55-89.58,74.55,0,0-89.58-28.27-89.58-74.55S38,36.66,90,36.66s89.58,22.52,89.58,68.8Z"/>
      <path class="cls-3" d="M34.38,44.21h111.25c.41.14,5.13,6.16,3.38,17.4-1.82,11.68-8.25,16.58-14.5,19.67-11.12,5.5-25.12,8.71-44.5,8.71s-33.38-3.21-44.5-8.71c-6.25-3.09-12.68-7.99-14.5-19.67-1.75-11.24,2.97-17.26,3.38-17.4Z"/>
      <g>
        <path class="cls-5" d="M13.46,118.24l5.32-4.63c1.69-1.47,4.35-1.47,6.04,0l5.32,4.63c1.69,1.47,4.35,1.47,6.04,0l5.32-4.63c1.69-1.47,4.35-1.47,6.04,0l5.32,4.63c1.69,1.47,4.35,1.47,6.04,0l5.32-4.63c1.69-1.47,4.35-1.47,6.04,0l5.32,4.63c1.69,1.47,4.35,1.47,6.04,0l5.32-4.63c1.69-1.47,4.35-1.47,6.04,0l5.32,4.63c1.69,1.47,4.35,1.47,6.04,0l5.32-4.63c1.69-1.47,4.35-1.47,6.04,0l5.32,4.63c1.69,1.47,4.35,1.47,6.04,0l5.32-4.63c1.69-1.47,4.35-1.47,6.04,0l5.32,4.63c1.69,1.47,4.35,1.47,6.04,0l5.32-4.63c1.69-1.47,4.35-1.47,6.04,0l5.32,4.63c1.69,1.47,4.35,1.47,6.04,0l5.56-4.84c.79-.69,2.09,0,1.81.96l-27.38,95.64H27.42L.04,114.36c-.28-.97,1.02-1.65,1.81-.96l5.56,4.84c1.69,1.47,4.35,1.47,6.04,0Z"/>
        <path class="cls-4" d="M24.82,116.35l6.2,5.4,5.35,85.03L12.82,121.54l5.96-5.19c1.69-1.47,4.36-1.47,6.04,0Z"/>
        <path class="cls-4" d="M161.22,116.35l5.96,5.19-23.56,85.24,5.35-85.03,6.21-5.4c1.69-1.47,4.36-1.47,6.04,0Z"/>
        <path class="cls-4" d="M121.8,121.61l-13.93,85.34-4.28-85.27,6.13-5.34c1.69-1.47,4.35-1.47,6.04,0l6.05,5.26Z"/>
        <path class="cls-4" d="M76.41,121.68l-4.28,85.27-13.93-85.34,6.04-5.26c1.69-1.47,4.36-1.47,6.04,0l6.13,5.33Z"/>
        <path class="cls-4" d="M138.49,116.35l6,5.23-18.75,85.31.54-85.17,6.17-5.37c1.69-1.47,4.35-1.47,6.04,0Z"/>
        <path class="cls-4" d="M178.92,118.01l-11.67,40.75,4.42-36.98,5.44-4.74c.79-.69,2.09,0,1.81.96Z"/>
        <path class="cls-4" d="M47.56,116.35l6.17,5.37.53,85.17-18.75-85.32,6-5.23c1.69-1.47,4.35-1.47,6.04,0Z"/>
        <path class="cls-4" d="M2.9,117.05l5.44,4.73,4.42,36.98L1.08,118.01c-.28-.97,1.02-1.65,1.81-.96Z"/>
        <path class="cls-4" d="M99.11,121.65l-9.11,85.33-9.11-85.33,6.09-5.3c1.69-1.47,4.36-1.47,6.04,0l6.08,5.3Z"/>
      </g>
      <path class="cls-1" d="M32.64,51.92c0-17.83,25.68-29.37,57.36-29.37s57.36,11.54,57.36,29.37-14.86,31.9-57.36,31.9-57.36-14.07-57.36-31.9Z"/>
      <g>
        <circle class="cls-2" cx="112.03" cy="56.91" r="2.01"/>
        <path class="cls-2" d="M46.7,55.87c0,1.11.9,2.01,2.01,2.01s2.01-.9,2.01-2.01-.9-2.01-2.01-2.01-2.01.9-2.01,2.01Z"/>
        <path class="cls-2" d="M91.47,69c0,1.11.9,2.01,2.01,2.01s2.01-.9,2.01-2.01-.9-2.01-2.01-2.01-2.01.9-2.01,2.01Z"/>
        <path class="cls-2" d="M79.87,57.99c0,1.11.9,2.01,2.01,2.01s2.01-.9,2.01-2.01-.9-2.01-2.01-2.01-2.01.9-2.01,2.01Z"/>
        <path class="cls-2" d="M17.85,75c0,1.11.9,2.01,2.01,2.01s2.01-.9,2.01-2.01-.9-2.01-2.01-2.01-2.01.9-2.01,2.01Z"/>
        <path class="cls-2" d="M154.87,87.03c0,1.64,1.33,2.97,2.97,2.97s2.97-1.33,2.97-2.97-1.33-2.97-2.97-2.97-2.97,1.33-2.97,2.97Z"/>
        <path class="cls-2" d="M21.9,95c0,1.64,1.33,2.97,2.97,2.97s2.97-1.33,2.97-2.97-1.33-2.97-2.97-2.97-2.97,1.33-2.97,2.97Z"/>
        <circle class="cls-2" cx="124.87" cy="94.06" r="2.97"/>
        <path class="cls-2" d="M63.85,66.99c0,1.64,1.33,2.97,2.97,2.97s2.97-1.33,2.97-2.97-1.33-2.97-2.97-2.97-2.97,1.33-2.97,2.97Z"/>
        <path class="cls-2" d="M69.87,98.25c0,.96.78,1.75,1.75,1.75s1.75-.78,1.75-1.75-.78-1.75-1.75-1.75-1.75.78-1.75,1.75Z"/>
        <circle class="cls-2" cx="58.93" cy="58.65" r="1.75"/>
        <path class="cls-2" d="M136.38,100c0,.96.78,1.75,1.75,1.75s1.75-.78,1.75-1.75-.78-1.75-1.75-1.75-1.75.78-1.75,1.75Z"/>
        <path class="cls-2" d="M49.87,93.25c0,.96.78,1.75,1.75,1.75s1.75-.78,1.75-1.75-.78-1.75-1.75-1.75-1.75.78-1.75,1.75Z"/>
        <path class="cls-2" d="M52.95,44.67c0,.96.78,1.75,1.75,1.75s1.75-.78,1.75-1.75-.78-1.75-1.75-1.75-1.75.78-1.75,1.75Z"/>
        <path class="cls-2" d="M123.12,66.75c0,.96.78,1.75,1.75,1.75s1.75-.78,1.75-1.75-.78-1.75-1.75-1.75-1.75.78-1.75,1.75Z"/>
        <path class="cls-2" d="M125.17,46.04c-.69,1.33-.17,2.97,1.16,3.66,1.33.69,2.97.17,3.66-1.16.69-1.33.17-2.97-1.16-3.66s-2.97-.17-3.66,1.16Z"/>
        <path class="cls-2" d="M90.27,97.29c0,1.5,1.21,2.71,2.71,2.71s2.71-1.21,2.71-2.71-1.21-2.71-2.71-2.71-2.71,1.21-2.71,2.71Z"/>
      </g>
      <g>
        <circle class="cls-5" cx="90" cy="25" r="25"/>
        <circle class="cls-4" cx="99.17" cy="15.83" r="7.5"/>
      </g>
    </g>
  </g>
</svg>