<?xml version="1.0" encoding="UTF-8"?>
<svg id="_레이어_2" data-name="레이어 2" xmlns="http://www.w3.org/2000/svg" viewBox="0 0 181 211">
  <defs>
    <style>
      .cls-1 {
        fill: #fff;
        opacity: .5;
        stroke: #b3b3b3;
        stroke-linecap: round;
        stroke-linejoin: round;
      }
    </style>
  </defs>
  <g id="Layer_4" data-name="Layer 4">
    <path class="cls-1" d="M178.65,113.89l-1.05.91c.25-1.5.4-3.05.4-4.68,0-37.19-26.64-78.21-69.05-87.62.19-1.06.3-2.14.3-3.25,0-10.36-8.39-18.75-18.75-18.75s-18.75,8.39-18.75,18.75c0,1.11.11,2.19.3,3.25C29.64,31.91,3,72.93,3,110.12c0,1.63.14,3.19.4,4.68l-1.05-.91c-.79-.69-2.09,0-1.81.96l1.05,3.65h0s6.72,23.49,6.72,23.49l19.61,68.5h125.16l14.67-51.24h0s11.67-40.75,11.67-40.75h0s1.05-3.66,1.05-3.66c.28-.97-1.02-1.65-1.81-.96Z"/>
  </g>
</svg>