<?xml version="1.0" encoding="UTF-8"?>
<svg id="_레이어_2" data-name="레이어 2" xmlns="http://www.w3.org/2000/svg" viewBox="0 0 180 210">
  <defs>
    <style>
      .cls-1 {
        fill: #ff5538;
      }

      .cls-1, .cls-2, .cls-3, .cls-4, .cls-5 {
        stroke-width: 0px;
      }

      .cls-2 {
        fill: #5fb4bc;
      }

      .cls-3 {
        fill: #fae7dd;
      }

      .cls-4 {
        fill: #845a3e;
      }

      .cls-5 {
        fill: #7fc3c9;
      }
    </style>
  </defs>
  <g id="Layer_4" data-name="Layer 4">
    <g>
      <path class="cls-3" d="M177.5,109.62c0,42.33-87.5,37.73-87.5,37.73,0,0-87.5,4.6-87.5-37.73S37,20,90,20s87.5,47.29,87.5,89.62Z"/>
      <g>
        <path class="cls-5" d="M166.54,118.24l-5.32-4.63c-1.69-1.47-4.35-1.47-6.04,0l-5.32,4.63c-1.69,1.47-4.35,1.47-6.04,0l-5.32-4.63c-1.69-1.47-4.35-1.47-6.04,0l-5.32,4.63c-1.69,1.47-4.35,1.47-6.04,0l-5.32-4.63c-1.69-1.47-4.35-1.47-6.04,0l-5.32,4.63c-1.69,1.47-4.35,1.47-6.04,0l-5.32-4.63c-1.69-1.47-4.35-1.47-6.04,0l-5.32,4.63c-1.69,1.47-4.35,1.47-6.04,0l-5.32-4.63c-1.69-1.47-4.35-1.47-6.04,0l-5.32,4.63c-1.69,1.47-4.35,1.47-6.04,0l-5.32-4.63c-1.69-1.47-4.35-1.47-6.04,0l-5.32,4.63c-1.69,1.47-4.35,1.47-6.04,0l-5.32-4.63c-1.69-1.47-4.35-1.47-6.04,0l-5.32,4.63c-1.69,1.47-4.35,1.47-6.04,0l-5.56-4.84c-.79-.69-2.09,0-1.81.96l27.38,95.64h125.16l27.38-95.64c.28-.97-1.02-1.65-1.81-.96l-5.56,4.84c-1.69,1.47-4.35,1.47-6.04,0Z"/>
        <path class="cls-2" d="M155.18,116.35l-6.2,5.4-5.35,85.03,23.56-85.24-5.96-5.19c-1.69-1.47-4.36-1.47-6.04,0Z"/>
        <path class="cls-2" d="M18.78,116.35l-5.96,5.19,23.56,85.24-5.35-85.03-6.21-5.4c-1.69-1.47-4.36-1.47-6.04,0Z"/>
        <path class="cls-2" d="M58.2,121.61l13.93,85.34,4.28-85.27-6.13-5.33c-1.69-1.47-4.35-1.47-6.04,0l-6.05,5.26Z"/>
        <path class="cls-2" d="M103.59,121.68l4.28,85.27,13.93-85.34-6.04-5.26c-1.69-1.47-4.36-1.47-6.04,0l-6.13,5.33Z"/>
        <path class="cls-2" d="M41.51,116.35l-6,5.23,18.75,85.31-.54-85.17-6.17-5.37c-1.69-1.47-4.35-1.47-6.04,0Z"/>
        <path class="cls-2" d="M1.08,118.01l11.67,40.75-4.42-36.98-5.44-4.74c-.79-.69-2.09,0-1.81.96Z"/>
        <path class="cls-2" d="M132.44,116.35l-6.17,5.37-.54,85.17,18.75-85.32-6-5.23c-1.69-1.47-4.35-1.47-6.04,0Z"/>
        <path class="cls-2" d="M177.1,117.05l-5.44,4.73-4.42,36.98,11.67-40.75c.28-.97-1.02-1.65-1.81-.96Z"/>
        <path class="cls-2" d="M80.89,121.65l9.11,85.33,9.11-85.33-6.09-5.3c-1.69-1.47-4.36-1.47-6.04,0l-6.08,5.3Z"/>
      </g>
      <g>
        <path class="cls-4" d="M50,72.5c0,2.76-3.36,5-7.5,5s-7.5-2.24-7.5-5,7.5-10,7.5-10c0,4,7.5,7.24,7.5,10Z"/>
        <path class="cls-4" d="M145,72.5c0,2.76-3.36,5-7.5,5s-7.5-2.24-7.5-5,7.5-10,7.5-10c0,4,7.5,7.24,7.5,10Z"/>
        <path class="cls-4" d="M121.25,50c0,2.76-3.36,5-7.5,5s-7.5-2.24-7.5-5,7.5-10,7.5-10c0,4,7.5,7.24,7.5,10Z"/>
        <path class="cls-4" d="M73.75,50c0,2.76-3.36,5-7.5,5s-7.5-2.24-7.5-5,7.5-10,7.5-10c0,4,7.5,7.24,7.5,10Z"/>
        <path class="cls-4" d="M97.5,72.5c0,2.76-3.36,5-7.5,5s-7.5-2.24-7.5-5,7.5-10,7.5-10c0,4,7.5,7.24,7.5,10Z"/>
      </g>
      <circle class="cls-1" cx="90" cy="18.75" r="18.75"/>
    </g>
  </g>
</svg>