<?xml version="1.0" encoding="UTF-8"?>
<svg id="_레이어_2" data-name="레이어 2" xmlns="http://www.w3.org/2000/svg" viewBox="0 0 192.5 220">
  <defs>
    <style>
      .cls-1 {
        fill: #6ca2d0;
      }

      .cls-1, .cls-2, .cls-3, .cls-4, .cls-5, .cls-6, .cls-7, .cls-8 {
        stroke-width: 0px;
      }

      .cls-2 {
        fill: #f181a9;
      }

      .cls-3 {
        fill: #ffeeb7;
      }

      .cls-4 {
        fill: #926445;
      }

      .cls-5 {
        fill: #845a3e;
      }

      .cls-6 {
        fill: #fff7db;
      }

      .cls-7 {
        fill: #89b5d9;
      }

      .cls-8 {
        fill: #fdd5a9;
      }
    </style>
  </defs>
  <g id="Layer_4" data-name="Layer 4">
    <g>
      <g>
        <path class="cls-7" d="M172.79,128.24l-5.32-4.63c-1.69-1.47-4.35-1.47-6.04,0l-5.32,4.63c-1.69,1.47-4.35,1.47-6.04,0l-5.32-4.63c-1.69-1.47-4.35-1.47-6.04,0l-5.32,4.63c-1.69,1.47-4.35,1.47-6.04,0l-5.32-4.63c-1.69-1.47-4.35-1.47-6.04,0l-5.32,4.63c-1.69,1.47-4.35,1.47-6.04,0l-5.32-4.63c-1.69-1.47-4.35-1.47-6.04,0l-5.32,4.63c-1.69,1.47-4.35,1.47-6.04,0l-5.32-4.63c-1.69-1.47-4.35-1.47-6.04,0l-5.32,4.63c-1.69,1.47-4.35,1.47-6.04,0l-5.32-4.63c-1.69-1.47-4.35-1.47-6.04,0l-5.32,4.63c-1.69,1.47-4.35,1.47-6.04,0l-5.32-4.63c-1.69-1.47-4.35-1.47-6.04,0l-5.32,4.63c-1.69,1.47-4.35,1.47-6.04,0l-5.56-4.84c-.79-.69-2.09,0-1.81.96l27.38,95.64h125.16l27.38-95.64c.28-.97-1.02-1.65-1.81-.96l-5.56,4.84c-1.69,1.47-4.35,1.47-6.04,0Z"/>
        <path class="cls-1" d="M161.43,126.35l-6.2,5.4-5.34,85.03,23.56-85.24-5.96-5.19c-1.69-1.47-4.36-1.47-6.04,0Z"/>
        <path class="cls-1" d="M25.03,126.35l-5.96,5.19,23.56,85.24-5.34-85.03-6.21-5.4c-1.69-1.47-4.36-1.47-6.04,0Z"/>
        <path class="cls-1" d="M64.45,131.61l13.93,85.34,4.28-85.27-6.13-5.34c-1.69-1.47-4.35-1.47-6.04,0l-6.05,5.26Z"/>
        <path class="cls-1" d="M109.84,131.68l4.28,85.27,13.93-85.34-6.04-5.26c-1.69-1.47-4.36-1.47-6.04,0l-6.13,5.33Z"/>
        <path class="cls-1" d="M47.76,126.35l-6,5.23,18.75,85.31-.54-85.17-6.17-5.37c-1.69-1.47-4.35-1.47-6.04,0Z"/>
        <path class="cls-1" d="M7.33,128.01l11.67,40.75-4.42-36.98-5.44-4.74c-.79-.69-2.09,0-1.81.96Z"/>
        <path class="cls-1" d="M138.69,126.35l-6.17,5.37-.53,85.17,18.75-85.32-6-5.23c-1.69-1.47-4.35-1.47-6.04,0Z"/>
        <path class="cls-1" d="M183.35,127.05l-5.44,4.73-4.42,36.98,11.67-40.75c.28-.97-1.02-1.65-1.81-.96Z"/>
        <path class="cls-1" d="M87.14,131.65l9.11,85.33,9.11-85.33-6.09-5.3c-1.69-1.47-4.36-1.47-6.04,0l-6.08,5.3Z"/>
      </g>
      <path class="cls-8" d="M96.25,20C42.21,20-2,63.37.07,106.8v7.62c0,19.6,42.14,35.59,96.18,35.59s96.18-15.98,96.18-35.59v-7.62c2.07-43.42-42.14-86.8-96.18-86.8Z"/>
      <path class="cls-2" d="M96.25,20C42.21,20-2,63.37.07,106.8H.07c11.2,0,20.27-9,20.27-20.1v-2.88c0-6.27,4.41-11.82,10.63-12.96,8.02-1.47,14.96,4.64,14.96,12.35v17.48c0,14.01,11.46,25.37,25.59,25.37h0c14.13,0,25.59-11.36,25.59-25.37v-9.11c0-6.6,4.93-12.55,11.65-13.12,7.58-.64,13.94,5.19,13.94,12.47v-.54c0,6.54,4.88,12.37,11.54,13,7.63.71,14.05-5.14,14.05-12.46v.54c0-6.54,4.88-12.37,11.54-13,7.67-.71,14.11,5.2,14.05,12.56-.07,8.76,7.37,15.78,16.2,15.78h2.36c2.07-43.42-42.14-86.8-96.18-86.8Z"/>
      <g>
        <path class="cls-5" d="M167.5,22.68c-9.57-5.52-21.8-2.25-27.32,7.32-1.95,3.38-2.8,7.09-2.66,10.72,3.85,3.62,8.49,7.07,13.73,10.1,5.25,3.03,10.56,5.31,15.62,6.84,3.21-1.7,6-4.29,7.95-7.67,5.52-9.57,2.25-21.8-7.32-27.32Z"/>
        <path class="cls-4" d="M145.14,28.67c-2.51,4.35-1.02,9.91,3.33,12.42,4.35,2.51,9.91,1.02,12.42-3.33,2.51-4.35,1.02-9.91-3.33-12.42-4.35-2.51-9.91-1.02-12.42,3.33Z"/>
      </g>
      <g>
        <path class="cls-5" d="M88.26.08c-11,.96-19.14,10.66-18.18,21.67.34,3.89,1.77,7.41,3.97,10.31,5.23.75,11.01.93,17.05.4s11.7-1.7,16.72-3.35c1.66-3.23,2.46-6.96,2.12-10.84C108.96,7.25,99.26-.89,88.26.08Z"/>
        <path class="cls-4" d="M73.38,17.8c.44,5,4.85,8.7,9.85,8.26s8.7-4.85,8.26-9.85c-.44-5-4.85-8.7-9.85-8.26-5,.44-8.7,4.85-8.26,9.85Z"/>
      </g>
      <g>
        <path class="cls-3" d="M123.48,40.31c-10.88-1.92-21.25,5.35-23.17,16.22-.68,3.84-.2,7.62,1.16,10.99,4.86,2.08,10.39,3.74,16.36,4.8,5.97,1.05,11.74,1.38,17.02,1.09,2.44-2.7,4.17-6.08,4.85-9.93,1.92-10.88-5.35-21.25-16.22-23.17Z"/>
        <path class="cls-6" d="M104.52,53.58c-.87,4.94,2.43,9.66,7.37,10.53,4.94.87,9.66-2.43,10.53-7.37.87-4.94-2.43-9.66-7.37-10.53-4.94-.87-9.66,2.43-10.53,7.37Z"/>
      </g>
      <g>
        <path class="cls-3" d="M30,30.01c-9.57,5.52-12.84,17.75-7.32,27.32,1.95,3.38,4.74,5.97,7.95,7.67,5.06-1.53,10.37-3.81,15.62-6.84,5.25-3.03,9.88-6.49,13.73-10.1.13-3.63-.71-7.34-2.66-10.72-5.52-9.57-17.75-12.84-27.32-7.32Z"/>
        <path class="cls-6" d="M24.01,52.36c2.51,4.35,8.07,5.84,12.42,3.33,4.35-2.51,5.84-8.07,3.33-12.42s-8.07-5.84-12.42-3.33-5.84,8.07-3.33,12.42Z"/>
      </g>
      <g>
        <path class="cls-5" d="M69.02,55.31c-10.88,1.92-18.14,12.29-16.22,23.17.68,3.84,2.41,7.23,4.85,9.93,5.28.29,11.05-.04,17.02-1.09s11.5-2.72,16.36-4.8c1.37-3.37,1.84-7.14,1.16-10.99-1.92-10.88-12.29-18.14-23.17-16.22Z"/>
        <path class="cls-4" d="M55.75,74.26c.87,4.94,5.59,8.25,10.53,7.37,4.94-.87,8.25-5.59,7.37-10.53-.87-4.94-5.59-8.25-10.53-7.37-4.94.87-8.25,5.59-7.37,10.53Z"/>
      </g>
    </g>
  </g>
</svg>