<?xml version="1.0" encoding="UTF-8"?>
<svg id="_레이어_2" data-name="레이어 2" xmlns="http://www.w3.org/2000/svg" viewBox="0 0 193.5 226">
  <defs>
    <style>
      .cls-1 {
        fill: #fff;
        opacity: .5;
        stroke: #b3b3b3;
        stroke-linecap: round;
        stroke-linejoin: round;
      }
    </style>
  </defs>
  <g id="Layer_4" data-name="Layer 4">
    <path class="cls-1" d="M190.24,90.7c-.1-.35-.21-.7-.32-1.04-1.08-3.47-2.43-6.89-4.03-10.23-.3-.63-.61-1.25-.93-1.87-.3-.59-.61-1.18-.93-1.77-.31-.57-.62-1.13-.94-1.69-.44-.77-.9-1.54-1.37-2.3-1.55-2.51-3.24-4.97-5.07-7.35-.2-.26-.4-.52-.6-.77-.73-.93-1.48-1.86-2.26-2.77-.14-.16-.27-.32-.41-.49-.86-1-1.74-1.98-2.64-2.95-.06-.07-.12-.13-.18-.2-.74-.79-1.5-1.56-2.27-2.33-.76-.76-1.54-1.51-2.33-2.25-2.92-2.71-6.04-5.28-9.33-7.66-2.06-1.5-4.19-2.92-6.38-4.27-.52-.32-1.04-.63-1.56-.95-.76-.45-1.54-.9-2.32-1.33-2.01-1.12-4.07-2.18-6.17-3.17-1.34-.63-2.7-1.24-4.07-1.82-1.61-.68-3.24-1.32-4.9-1.92-2.67-.97-5.4-1.83-8.18-2.58-.44-1.53-.98-3.05-1.63-4.54-.2-.46-.41-.91-.63-1.37-1.97-4.08-4.68-7.94-7.88-11.35-.71-.76-1.45-1.49-2.2-2.2-1.51-1.42-3.11-2.74-4.78-3.94-2.91-2.1-6.01-3.83-9.19-5.09,0,15.7-18.29,17.84-25.03,28.16C29.75,39.39-1.17,75.82.57,112.3v7.62c0,4.85,2.59,9.49,7.3,13.71l7.18,25.06,19.13,66.82h125.16l14.67-51.24h0s7.09-24.76,7.09-24.76l4.54-15.87c4.71-4.22,7.3-8.85,7.3-13.71v-7.62h0c.35-7.27-.61-14.53-2.69-21.6Z"/>
  </g>
</svg>