<?xml version="1.0" encoding="UTF-8"?>
<svg id="_레이어_2" data-name="레이어 2" xmlns="http://www.w3.org/2000/svg" viewBox="0 0 192.5 225">
  <defs>
    <style>
      .cls-1 {
        fill: #fff5d2;
      }

      .cls-1, .cls-2, .cls-3, .cls-4, .cls-5, .cls-6 {
        stroke-width: 0px;
      }

      .cls-2 {
        fill: #ffd54b;
      }

      .cls-3 {
        fill: #fbaa53;
      }

      .cls-4 {
        fill: #5fb4bc;
      }

      .cls-5 {
        fill: #fcbb75;
      }

      .cls-6 {
        fill: #ffe078;
      }
    </style>
  </defs>
  <g id="Layer_4" data-name="Layer 4">
    <g>
      <g>
        <path class="cls-5" d="M172.79,133.24l-5.32-4.63c-1.69-1.47-4.35-1.47-6.04,0l-5.32,4.63c-1.69,1.47-4.35,1.47-6.04,0l-5.32-4.63c-1.69-1.47-4.35-1.47-6.04,0l-5.32,4.63c-1.69,1.47-4.35,1.47-6.04,0l-5.32-4.63c-1.69-1.47-4.35-1.47-6.04,0l-5.32,4.63c-1.69,1.47-4.35,1.47-6.04,0l-5.32-4.63c-1.69-1.47-4.35-1.47-6.04,0l-5.32,4.63c-1.69,1.47-4.35,1.47-6.04,0l-5.32-4.63c-1.69-1.47-4.35-1.47-6.04,0l-5.32,4.63c-1.69,1.47-4.35,1.47-6.04,0l-5.32-4.63c-1.69-1.47-4.35-1.47-6.04,0l-5.32,4.63c-1.69,1.47-4.35,1.47-6.04,0l-5.32-4.63c-1.69-1.47-4.35-1.47-6.04,0l-5.32,4.63c-1.69,1.47-4.35,1.47-6.04,0l-5.56-4.84c-.79-.69-2.09,0-1.81.96l27.38,95.64h125.16l27.38-95.64c.28-.97-1.02-1.65-1.81-.96l-5.56,4.84c-1.69,1.47-4.35,1.47-6.04,0Z"/>
        <path class="cls-3" d="M161.43,131.35l-6.2,5.4-5.34,85.03,23.56-85.24-5.96-5.19c-1.69-1.47-4.36-1.47-6.04,0Z"/>
        <path class="cls-3" d="M25.03,131.35l-5.96,5.19,23.56,85.24-5.34-85.03-6.21-5.4c-1.69-1.47-4.36-1.47-6.04,0Z"/>
        <path class="cls-3" d="M64.45,136.61l13.93,85.34,4.28-85.27-6.13-5.34c-1.69-1.47-4.35-1.47-6.04,0l-6.05,5.26Z"/>
        <path class="cls-3" d="M109.84,136.68l4.28,85.27,13.93-85.34-6.04-5.26c-1.69-1.47-4.36-1.47-6.04,0l-6.13,5.33Z"/>
        <path class="cls-3" d="M47.76,131.35l-6,5.23,18.75,85.31-.54-85.17-6.17-5.37c-1.69-1.47-4.35-1.47-6.04,0Z"/>
        <path class="cls-3" d="M7.33,133.01l11.67,40.75-4.42-36.98-5.44-4.74c-.79-.69-2.09,0-1.81.96Z"/>
        <path class="cls-3" d="M138.69,131.35l-6.17,5.37-.53,85.17,18.75-85.32-6-5.23c-1.69-1.47-4.35-1.47-6.04,0Z"/>
        <path class="cls-3" d="M183.35,132.05l-5.44,4.73-4.42,36.98,11.67-40.75c.28-.97-1.02-1.65-1.81-.96Z"/>
        <path class="cls-3" d="M87.14,136.65l9.11,85.33,9.11-85.33-6.09-5.3c-1.69-1.47-4.36-1.47-6.04,0l-6.08,5.3Z"/>
      </g>
      <path class="cls-2" d="M96.25,25C42.21,25-2,68.37.07,111.8v7.62c0,19.6,42.14,35.59,96.18,35.59s96.18-15.98,96.18-35.59v-7.62c2.07-43.42-42.14-86.8-96.18-86.8Z"/>
      <path class="cls-4" d="M96.25,25C42.21,25-2,68.37.07,111.8H.07c11.2,0,20.27-9,20.27-20.1v-2.88c0-6.27,4.41-11.82,10.63-12.96,8.02-1.47,14.96,4.64,14.96,12.35v17.48c0,14.01,11.46,25.37,25.59,25.37h0c14.13,0,25.59-11.36,25.59-25.37v-9.11c0-6.6,4.93-12.55,11.65-13.12,7.58-.64,13.94,5.19,13.94,12.47v-.54c0,6.54,4.88,12.37,11.54,13,7.63.71,14.05-5.14,14.05-12.46v.54c0-6.54,4.88-12.37,11.54-13,7.67-.71,14.11,5.2,14.05,12.56-.07,8.76,7.37,15.78,16.2,15.78h2.36c2.07-43.42-42.14-86.8-96.18-86.8Z"/>
      <g>
        <circle class="cls-1" cx="131" cy="81.25" r="3.75"/>
        <circle class="cls-1" cx="61.5" cy="81.25" r="3.75"/>
      </g>
      <g>
        <path class="cls-6" d="M123.75,36.67c0,15.19-12.31,18.33-27.5,18.33s-27.5-3.15-27.5-18.33c0-18.56,27.5-17.42,27.5-36.67,14.54,5.73,27.5,21.48,27.5,36.67Z"/>
        <g>
          <path class="cls-1" d="M108.04,36.67c0,7.09,2.63,12.34,6.65,15.37,5.57-2.6,9.07-7.27,9.07-15.37,0-15.19-12.96-30.94-27.5-36.67,14.14,12.6,11.79,21.08,11.79,36.67Z"/>
          <path class="cls-1" d="M93.89,36.67c0-15.58,9.23-17.87,2.36-36.67.79,20.62-15.71,21.08-15.71,36.67,0,11.61,7.04,18.33,15.71,18.33,4.19,0,8.16-.24,11.72-.91-8.4-2.23-14.07-8.42-14.07-17.43Z"/>
        </g>
      </g>
      <circle class="cls-1" cx="145" cy="51.25" r="3.75"/>
      <circle class="cls-1" cx="113.75" cy="63.75" r="3.75"/>
      <circle class="cls-1" cx="78.75" cy="63.75" r="3.75"/>
      <circle class="cls-1" cx="47.5" cy="51.25" r="3.75"/>
    </g>
  </g>
</svg>