<?xml version="1.0" encoding="UTF-8"?>
<svg id="_레이어_2" data-name="레이어 2" xmlns="http://www.w3.org/2000/svg" viewBox="0 0 180 250">
  <defs>
    <style>
      .cls-1 {
        fill: #5fb4bc;
      }

      .cls-1, .cls-2, .cls-3, .cls-4, .cls-5 {
        stroke-width: 0px;
      }

      .cls-2 {
        fill: #f181a9;
      }

      .cls-3 {
        fill: #ffdd6f;
      }

      .cls-4 {
        fill: #fff;
      }

      .cls-5 {
        fill: #ee6294;
      }
    </style>
  </defs>
  <g id="Layer_4" data-name="Layer 4">
    <g>
      <g>
        <g>
          <path class="cls-2" d="M136.06,14.25c-3.45-1.99-7.38-2.83-11.26-2.59-1.73-3.48-4.42-6.46-7.87-8.46-11.32-6.53-25.77-2.76-32.22,8.42-5.66,9.8-6.22,20.12-1.69,30.7l7.73,17.88,2.58,5.97,6.46-.75,19.32-2.24c11.45-1.36,20.11-7.01,25.77-16.81,6.45-11.17,2.49-25.58-8.82-32.11h0Z"/>
          <path class="cls-4" d="M114.75,6.99c-9.23-5.33-21-2.27-26.25,6.81-5,8.66-5.47,17.42-1.45,26.78l9.02,20.85,22.55-2.61c10.12-1.2,17.48-6,22.48-14.65,5.25-9.09,2.01-20.81-7.22-26.14-2.62-1.51-5.66-2.21-8.79-2.01l-2.9.18-1.29-2.61c-1.4-2.81-3.52-5.1-6.14-6.61Z"/>
          <path class="cls-2" d="M131.69,21.83c-4.27-2.47-8.76-2.57-12.85.16.32-4.9-2.01-8.74-6.28-11.21-7.14-4.12-16.23-1.78-20.27,5.21-3.98,6.9-4.88,14.34-1.22,22.87l7.72,17.85h0s0,0,0,0h0s19.32-2.24,19.32-2.24c9.22-1.09,15.21-5.59,19.19-12.49,4.04-6.99,1.52-16.04-5.62-20.16Z"/>
          <path class="cls-4" d="M129.5,25.62c-6.26-3.61-14.38,2.82-14.39,2.83,0-.01,1.52-10.26-4.74-13.87-5.05-2.91-11.46-1.29-14.29,3.61-3.57,6.19-3.89,12.21-.99,18.95l6.43,14.86h0s0,0,0,0h0s0,0,0,0l16.08-1.86c7.29-.86,12.35-4.15,15.92-10.33,2.83-4.91,1.03-11.27-4.02-14.18Z"/>
        </g>
        <path class="cls-3" d="M82.7,7.02c-21.36,18.71-10.7,40.48-2.7,45.47,0,0-33.02-15.65-39-24.83C45.5,5,71.36.38,82.7,7.02Z"/>
        <path class="cls-5" d="M96.25,25.84h0c-4.83,0-8.75,3.89-8.75,8.69,0-4.8-3.92-8.69-8.75-8.69h0c-4.83,0-8.75,3.89-8.75,8.69h0c0,5.48,2.57,10.64,6.96,13.96l10.54,7.98,10.54-7.98c4.39-3.32,6.96-8.48,6.96-13.96h0c0-4.8-3.92-8.69-8.75-8.69Z"/>
        <path class="cls-1" d="M41,27.66c9.23,9.18,49,19.83,49,19.83,0,0,43.58,9.69,57.61,18.05,11.73,7,18.89,16.12,18.89,26.13,0,6.64-3.17,12.89-8.7,18.39-16.5-9.83-67.8-21.2-67.8-21.2,0,0-46.75-12.53-57.61-23.32-4.71-4.69-7.42-10.01-7.42-15.66,0-8.51,6.06-16.27,16.03-22.21Z"/>
        <path class="cls-3" d="M32.39,65.54c10.86,10.8,57.61,23.32,57.61,23.32,0,0,51.3,11.37,67.8,21.2,13.81,8.23,22.2,18.99,22.2,30.78,0,7.82-3.7,15.18-10.21,21.66-19.41-11.58-79.79-24.96-79.79-24.96,0,0-55.03-14.75-67.8-27.47-5.53-5.51-8.7-11.75-8.7-18.39,0-10.01,7.16-19.14,18.89-26.13Z"/>
        <path class="cls-1" d="M90,137.54s-55.03-14.75-67.8-27.47C8.39,118.3,0,129.06,0,140.84c0,7.82,3.7,15.18,10.21,21.66h159.59c-19.41-11.58-79.79-24.96-79.79-24.96Z"/>
      </g>
      <g>
        <path class="cls-2" d="M169.56,160.89l-8.34-7.27c-1.69-1.47-4.35-1.47-6.04,0l-8.34,7.27-8.34-7.27c-1.69-1.47-4.35-1.47-6.04,0l-8.34,7.27-8.34-7.27c-1.69-1.47-4.35-1.47-6.04,0l-8.34,7.27-8.34-7.27c-1.69-1.47-4.35-1.47-6.04,0l-8.34,7.27-8.34-7.27c-1.69-1.47-4.35-1.47-6.04,0l-8.34,7.27-8.34-7.27c-1.69-1.47-4.35-1.47-6.04,0l-8.34,7.27-8.34-7.27c-1.69-1.47-4.35-1.47-6.04,0l-8.34,7.27-8.59-7.48c-.79-.69-2.09,0-1.81.96l27.38,95.62h125.16l27.38-95.62c.28-.97-1.02-1.65-1.81-.96l-8.59,7.48Z"/>
        <path class="cls-5" d="M155.18,156.37l-6.2,5.4-5.34,85.03,23.56-85.24-5.96-5.19c-1.69-1.47-4.36-1.47-6.04,0Z"/>
        <path class="cls-5" d="M18.78,156.37l-5.96,5.19,23.56,85.24-5.35-85.03-6.21-5.4c-1.69-1.47-4.36-1.47-6.04,0Z"/>
        <path class="cls-5" d="M58.2,161.64l13.93,85.34,4.28-85.27-6.13-5.34c-1.69-1.47-4.35-1.47-6.04,0l-6.05,5.26Z"/>
        <path class="cls-5" d="M103.59,161.71l4.28,85.27,13.93-85.34-6.04-5.26c-1.69-1.47-4.36-1.47-6.04,0l-6.13,5.33Z"/>
        <path class="cls-5" d="M41.51,156.37l-6,5.23,18.75,85.31-.54-85.17-6.17-5.37c-1.69-1.47-4.35-1.47-6.04,0Z"/>
        <path class="cls-5" d="M1.08,158.04l11.67,40.75-4.42-36.98-5.44-4.74c-.79-.69-2.09,0-1.81.96Z"/>
        <path class="cls-5" d="M132.44,156.37l-6.17,5.37-.53,85.17,18.75-85.32-6-5.23c-1.69-1.47-4.35-1.47-6.04,0Z"/>
        <path class="cls-5" d="M177.1,157.07l-5.44,4.73-4.42,36.98,11.67-40.75c.28-.97-1.02-1.65-1.81-.96Z"/>
        <path class="cls-5" d="M80.89,161.67l9.11,85.33,9.11-85.33-6.09-5.3c-1.69-1.47-4.36-1.47-6.04,0l-6.08,5.3Z"/>
      </g>
    </g>
  </g>
</svg>