<?xml version="1.0" encoding="UTF-8"?>
<svg id="_레이어_2" data-name="레이어 2" xmlns="http://www.w3.org/2000/svg" viewBox="0 0 193.5 221">
  <defs>
    <style>
      .cls-1 {
        fill: #fff;
        opacity: .5;
        stroke: #b3b3b3;
        stroke-linecap: round;
        stroke-linejoin: round;
      }
    </style>
  </defs>
  <g id="Layer_4" data-name="Layer 4">
    <path class="cls-1" d="M184.04,70.78c-.31-.57-.62-1.13-.94-1.69-.44-.77-.9-1.54-1.37-2.3-.29-.47-.58-.94-.88-1.4-.47-.72-.94-1.44-1.43-2.16-.46-.67-.93-1.33-1.4-1.99-1.45-1.99-2.99-3.94-4.62-5.83-.31-.37-.63-.73-.95-1.09,1.08-1.13,2.06-2.4,2.88-3.82,5.52-9.57,2.25-21.8-7.32-27.32-9.57-5.52-21.8-2.25-27.32,7.32,0,0,0,.01-.01.02-.15-.07-.31-.14-.46-.22-1.34-.63-2.7-1.24-4.07-1.82-1.61-.68-3.24-1.32-4.9-1.92-6.61-2.39-13.56-4.14-20.76-5.13.04-.88.03-1.78-.05-2.69-.96-11-10.66-19.14-21.67-18.18s-19.14,10.66-18.18,21.67c.05.56.13,1.11.22,1.66-6.75,1.79-13.2,4.25-19.27,7.26-6.12-4.04-14.24-4.57-21.02-.65-8.29,4.79-11.85,14.61-9.05,23.37C7.65,69.25-.34,88.27.57,107.3v7.62c0,4.85,2.59,9.49,7.3,13.71l5.99,20.94,20.31,70.94h125.16l14.67-51.24h0s6.48-22.63,6.48-22.63l5.16-18.01c4.71-4.22,7.3-8.85,7.3-13.71v-7.62h0c.6-12.52-2.66-25.04-8.89-36.51Z"/>
  </g>
</svg>