<?xml version="1.0" encoding="UTF-8"?>
<svg id="_레이어_2" data-name="레이어 2" xmlns="http://www.w3.org/2000/svg" viewBox="0 0 200 207.5">
  <defs>
    <style>
      .cls-1 {
        fill: #fff5d2;
      }

      .cls-1, .cls-2, .cls-3, .cls-4, .cls-5, .cls-6, .cls-7, .cls-8 {
        stroke-width: 0px;
      }

      .cls-2 {
        fill: #ff7760;
      }

      .cls-3 {
        fill: #f8e794;
      }

      .cls-4 {
        fill: #ffeaa5;
      }

      .cls-5 {
        fill: #ffcb1e;
      }

      .cls-6 {
        fill: #fa9528;
      }

      .cls-7 {
        fill: #ff8d79;
      }

      .cls-8 {
        fill: #adcbe4;
      }
    </style>
  </defs>
  <g id="Layer_4" data-name="Layer 4">
    <g>
      <path class="cls-1" d="M100,0C46.11,0,2.67,46.52,11.03,90h177.93C197.33,46.52,153.89,0,100,0Z"/>
      <g>
        <path class="cls-7" d="M176.54,115.74l-5.32-4.63c-1.69-1.47-4.35-1.47-6.04,0l-5.32,4.63c-1.69,1.47-4.35,1.47-6.04,0l-5.32-4.63c-1.69-1.47-4.35-1.47-6.04,0l-5.32,4.63c-1.69,1.47-4.35,1.47-6.04,0l-5.32-4.63c-1.69-1.47-4.35-1.47-6.04,0l-5.32,4.63c-1.69,1.47-4.35,1.47-6.04,0l-5.32-4.63c-1.69-1.47-4.35-1.47-6.04,0l-5.32,4.63c-1.69,1.47-4.35,1.47-6.04,0l-5.32-4.63c-1.69-1.47-4.35-1.47-6.04,0l-5.32,4.63c-1.69,1.47-4.35,1.47-6.04,0l-5.32-4.63c-1.69-1.47-4.35-1.47-6.04,0l-5.32,4.63c-1.69,1.47-4.35,1.47-6.04,0l-5.32-4.63c-1.69-1.47-4.35-1.47-6.04,0l-5.32,4.63c-1.69,1.47-4.35,1.47-6.04,0l-5.56-4.84c-.79-.69-2.09,0-1.81.96l27.38,95.64h125.16l27.38-95.64c.28-.97-1.02-1.65-1.81-.96l-5.56,4.84c-1.69,1.47-4.35,1.47-6.04,0Z"/>
        <path class="cls-2" d="M165.18,113.85l-6.2,5.4-5.34,85.03,23.56-85.24-5.96-5.19c-1.69-1.47-4.36-1.47-6.04,0Z"/>
        <path class="cls-2" d="M28.78,113.85l-5.96,5.19,23.56,85.24-5.35-85.03-6.21-5.4c-1.69-1.47-4.36-1.47-6.04,0Z"/>
        <path class="cls-2" d="M68.2,119.11l13.93,85.34,4.28-85.27-6.13-5.33c-1.69-1.47-4.35-1.47-6.04,0l-6.05,5.26Z"/>
        <path class="cls-2" d="M113.59,119.18l4.28,85.27,13.93-85.34-6.04-5.26c-1.69-1.47-4.36-1.47-6.04,0l-6.13,5.33Z"/>
        <path class="cls-2" d="M51.51,113.85l-6,5.23,18.75,85.31-.54-85.17-6.17-5.37c-1.69-1.47-4.35-1.47-6.04,0Z"/>
        <path class="cls-2" d="M11.08,115.51l11.67,40.75-4.42-36.98-5.44-4.74c-.79-.69-2.09,0-1.81.96Z"/>
        <path class="cls-2" d="M142.44,113.85l-6.17,5.37-.53,85.17,18.75-85.32-6-5.23c-1.69-1.47-4.35-1.47-6.04,0Z"/>
        <path class="cls-2" d="M187.1,114.55l-5.44,4.73-4.42,36.98,11.67-40.75c.28-.97-1.02-1.65-1.81-.96Z"/>
        <path class="cls-2" d="M90.89,119.15l9.11,85.33,9.11-85.33-6.09-5.3c-1.69-1.47-4.36-1.47-6.04,0l-6.08,5.3Z"/>
      </g>
      <path class="cls-1" d="M188.1,80.56H11.9c-7.22,4.63-11.9,11.95-11.9,20.2,0,14.02,13.43,25.38,30,25.38,6.34,0,12.22-1.68,17.06-4.52,2.24,12.14,14.62,21.44,29.6,21.44,9.43,0,17.83-3.69,23.33-9.44,5.5,5.76,13.9,9.44,23.33,9.44,14.98,0,27.36-9.3,29.6-21.44,4.85,2.84,10.72,4.52,17.06,4.52,16.57,0,30-11.36,30-25.38,0-8.26-4.68-15.57-11.9-20.2Z"/>
      <path class="cls-4" d="M100,105.55c-31.21.04-58.63-6.51-75-15.08,9.88,11.96,39.28,22.56,75,22.5,35.72.06,65.12-10.54,75-22.5-16.38,8.57-43.8,15.12-75,15.08Z"/>
      <g>
        <path class="cls-5" d="M131.22,53.84h0c-.4.96-1.49,1.41-2.45,1.01l-10.39-4.31c-.96-.4-1.41-1.49-1.01-2.45h0c.4-.96,1.49-1.41,2.45-1.01l10.39,4.31c.96.4,1.41,1.49,1.01,2.45Z"/>
        <path class="cls-3" d="M41.67,89.45h0c-.73.73-1.92.73-2.65,0l-7.95-7.95c-.73-.73-.73-1.92,0-2.65h0c.73-.73,1.92-.73,2.65,0l7.95,7.95c.73.73.73,1.92,0,2.65Z"/>
        <path class="cls-6" d="M104.48,28.94h0c-.73-.73-.73-1.92,0-2.65l7.95-7.95c.73-.73,1.92-.73,2.65,0h0c.73.73.73,1.92,0,2.65l-7.95,7.95c-.73.73-1.92.73-2.65,0Z"/>
        <path class="cls-3" d="M83.22,53.84h0c-.4-.96.06-2.05,1.01-2.45l10.39-4.31c.96-.4,2.05.06,2.45,1.01h0c.4.96-.06,2.05-1.01,2.45l-10.39,4.31c-.96.4-2.05-.06-2.45-1.01Z"/>
        <path class="cls-8" d="M65.08,46.38h0c-.73.73-1.92.73-2.65,0l-7.95-7.95c-.73-.73-.73-1.92,0-2.65h0c.73-.73,1.92-.73,2.65,0l7.95,7.95c.73.73.73,1.92,0,2.65Z"/>
        <path class="cls-3" d="M130.09,91.93h0c-.96.4-2.05-.06-2.45-1.01l-4.31-10.39c-.4-.96.06-2.05,1.01-2.45h0c.96-.4,2.05.06,2.45,1.01l4.31,10.39c.4.96-.06,2.05-1.01,2.45Z"/>
        <path class="cls-6" d="M156.91,56.93h0c-.79-.67-.9-1.85-.23-2.64l7.23-8.62c.67-.79,1.85-.9,2.64-.23h0c.79.67.9,1.85.23,2.64l-7.23,8.62c-.67.79-1.85.9-2.64.23Z"/>
        <path class="cls-6" d="M62.77,60.55h0c-.73.73-.73,1.92,0,2.65l7.95,7.95c.73.73,1.92.73,2.65,0h0c.73-.73.73-1.92,0-2.65l-7.95-7.95c-.73-.73-1.92-.73-2.65,0Z"/>
        <path class="cls-5" d="M75.32,94h0c.96.4,2.05-.06,2.45-1.01l4.31-10.39c.4-.96-.06-2.05-1.01-2.45h0c-.96-.4-2.05.06-2.45,1.01l-4.31,10.39c-.4.96.06,2.05,1.01,2.45Z"/>
        <path class="cls-5" d="M77.03,31.78h0c.96.4,2.05-.06,2.45-1.01l4.31-10.39c.4-.96-.06-2.05-1.01-2.45h0c-.96-.4-2.05.06-2.45,1.01l-4.31,10.39c-.4.96.06,2.05,1.01,2.45Z"/>
        <path class="cls-5" d="M40.8,62.78h0c1.04,0,1.87-.84,1.87-1.87v-11.25c0-1.04-.84-1.87-1.87-1.87h0c-1.04,0-1.88.84-1.88,1.87v11.25c0,1.04.84,1.87,1.88,1.87Z"/>
        <path class="cls-8" d="M162.77,87.64h0c.96-.4,1.41-1.49,1.01-2.45l-4.31-10.39c-.4-.96-1.49-1.41-2.45-1.01h0c-.96.4-1.41,1.49-1.01,2.45l4.31,10.39c.4.96,1.49,1.41,2.45,1.01Z"/>
        <path class="cls-3" d="M143.38,37.23h0c.73-.73.73-1.92,0-2.65l-7.95-7.95c-.73-.73-1.92-.73-2.65,0h0c-.73.73-.73,1.92,0,2.65l7.95,7.95c.73.73,1.92.73,2.65,0Z"/>
        <path class="cls-8" d="M102.37,71.9h0c.4.96,1.49,1.41,2.45,1.01l10.39-4.31c.96-.4,1.41-1.49,1.01-2.45h0c-.4-.96-1.49-1.41-2.45-1.01l-10.39,4.31c-.96.4-1.41,1.49-1.01,2.45Z"/>
      </g>
    </g>
  </g>
</svg>