<?xml version="1.0" encoding="UTF-8"?>
<svg id="_레이어_2" data-name="레이어 2" xmlns="http://www.w3.org/2000/svg" viewBox="0 0 181 251">
  <defs>
    <style>
      .cls-1 {
        fill: #fff;
        opacity: .5;
        stroke: #b3b3b3;
        stroke-linecap: round;
        stroke-linejoin: round;
      }
    </style>
  </defs>
  <g id="Layer_4" data-name="Layer 4">
    <path class="cls-1" d="M178.65,153.92l-3.02,2.63c3.15-4.77,4.87-9.88,4.87-15.21,0-11.79-8.39-22.55-22.2-30.78,5.53-5.51,8.7-11.75,8.7-18.4,0-10.01-7.16-19.14-18.89-26.13-3.58-2.14-9.09-4.36-15.31-6.48,5.15-2.86,9.36-7.1,12.59-12.69,6.45-11.17,2.49-25.58-8.82-32.11-3.45-1.99-7.38-2.83-11.26-2.59-1.73-3.48-4.42-6.46-7.87-8.46-11.32-6.53-25.77-2.76-32.22,8.42-2.69,4.67-4.22,9.46-4.6,14.33-.44-.07-.9-.12-1.36-.12-4.23,0-7.75,2.98-8.57,6.93-.33-7.95,2.72-17.17,12.52-25.75-11.34-6.64-37.2-2.02-41.69,20.64-9.97,5.95-16.03,13.7-16.03,22.21,0,5.66,2.7,10.98,7.42,15.66-11.73,7-18.89,16.12-18.89,26.13,0,6.64,3.17,12.89,8.7,18.4,2,1.99,5.02,4.02,8.71,6.05-3.69-2.02-6.72-4.06-8.71-6.05C8.89,118.8.5,129.56.5,141.34c0,5.32,1.72,10.44,4.87,15.21l-3.02-2.63c-.79-.69-2.09,0-1.81.96l1.05,3.65s0,0,0,0l11.67,40.75v-.02s14.67,51.23,14.67,51.23h125.16l14.67-51.24v.02s11.66-40.75,11.66-40.75c0,0,0,0,0,0l1.05-3.65c.28-.97-1.02-1.65-1.81-.96Z"/>
  </g>
</svg>