<?xml version="1.0" encoding="UTF-8"?>
<svg id="_레이어_2" data-name="레이어 2" xmlns="http://www.w3.org/2000/svg" viewBox="0 0 200 207.5">
  <defs>
    <style>
      .cls-1 {
        fill: #ffeaa5;
      }

      .cls-1, .cls-2, .cls-3, .cls-4, .cls-5, .cls-6, .cls-7 {
        stroke-width: 0px;
      }

      .cls-2 {
        fill: #fbaa53;
      }

      .cls-3 {
        fill: #ffcb1e;
      }

      .cls-4 {
        fill: #5fb4bc;
      }

      .cls-5 {
        fill: #f181a9;
      }

      .cls-6 {
        fill: #926445;
      }

      .cls-7 {
        fill: #845a3e;
      }
    </style>
  </defs>
  <g id="Layer_4" data-name="Layer 4">
    <g>
      <g>
        <path class="cls-6" d="M176.54,115.74l-5.32-4.63c-1.69-1.47-4.35-1.47-6.04,0l-5.32,4.63c-1.69,1.47-4.35,1.47-6.04,0l-5.32-4.63c-1.69-1.47-4.35-1.47-6.04,0l-5.32,4.63c-1.69,1.47-4.35,1.47-6.04,0l-5.32-4.63c-1.69-1.47-4.35-1.47-6.04,0l-5.32,4.63c-1.69,1.47-4.35,1.47-6.04,0l-5.32-4.63c-1.69-1.47-4.35-1.47-6.04,0l-5.32,4.63c-1.69,1.47-4.35,1.47-6.04,0l-5.32-4.63c-1.69-1.47-4.35-1.47-6.04,0l-5.32,4.63c-1.69,1.47-4.35,1.47-6.04,0l-5.32-4.63c-1.69-1.47-4.35-1.47-6.04,0l-5.32,4.63c-1.69,1.47-4.35,1.47-6.04,0l-5.32-4.63c-1.69-1.47-4.35-1.47-6.04,0l-5.32,4.63c-1.69,1.47-4.35,1.47-6.04,0l-5.56-4.84c-.79-.69-2.09,0-1.81.96l27.38,95.64h125.16l27.38-95.64c.28-.97-1.02-1.65-1.81-.96l-5.56,4.84c-1.69,1.47-4.35,1.47-6.04,0Z"/>
        <path class="cls-7" d="M165.18,113.85l-6.2,5.4-5.34,85.03,23.56-85.24-5.96-5.19c-1.69-1.47-4.36-1.47-6.04,0Z"/>
        <path class="cls-7" d="M28.78,113.85l-5.96,5.19,23.56,85.24-5.34-85.03-6.21-5.4c-1.69-1.47-4.36-1.47-6.04,0Z"/>
        <path class="cls-7" d="M68.2,119.11l13.93,85.34,4.28-85.27-6.13-5.33c-1.69-1.47-4.35-1.47-6.04,0l-6.05,5.26Z"/>
        <path class="cls-7" d="M113.59,119.18l4.28,85.27,13.93-85.34-6.04-5.26c-1.69-1.47-4.36-1.47-6.04,0l-6.13,5.33Z"/>
        <path class="cls-7" d="M51.51,113.85l-6,5.23,18.75,85.31-.54-85.17-6.17-5.37c-1.69-1.47-4.35-1.47-6.04,0Z"/>
        <path class="cls-7" d="M11.08,115.51l11.67,40.75-4.42-36.98-5.44-4.74c-.79-.69-2.09,0-1.81.96Z"/>
        <path class="cls-7" d="M142.44,113.85l-6.17,5.37-.53,85.17,18.75-85.32-6-5.23c-1.69-1.47-4.35-1.47-6.04,0Z"/>
        <path class="cls-7" d="M187.1,114.55l-5.44,4.73-4.42,36.98,11.67-40.75c.28-.97-1.02-1.65-1.81-.96Z"/>
        <path class="cls-7" d="M90.89,119.15l9.11,85.33,9.11-85.33-6.09-5.3c-1.69-1.47-4.36-1.47-6.04,0l-6.08,5.3Z"/>
      </g>
      <path class="cls-2" d="M188.1,80.56H11.9c-7.22,4.63-11.9,11.95-11.9,20.2,0,14.02,13.43,25.38,30,25.38,6.34,0,12.22-1.68,17.06-4.52,2.24,12.14,14.62,21.44,29.6,21.44,9.43,0,17.83-3.69,23.33-9.44,5.5,5.76,13.9,9.44,23.33,9.44,14.98,0,27.36-9.3,29.6-21.44,4.85,2.84,10.72,4.52,17.06,4.52,16.57,0,30-11.36,30-25.38,0-8.26-4.68-15.57-11.9-20.2Z"/>
      <path class="cls-2" d="M100,0S8.13,40.9,10.07,81.85h179.87C191.87,40.9,100,0,100,0Z"/>
      <path class="cls-6" d="M100,0C49.47,0,8.13,40.9,10.07,81.85h0c10.47,0,18.96-8.49,18.96-18.96v-2.72c0-5.91,4.12-11.15,9.94-12.22,7.5-1.38,13.99,4.37,13.99,11.64v16.48c0,13.21,10.71,23.93,23.93,23.93h0c13.21,0,23.93-10.71,23.93-23.93v-8.59c0-6.22,4.61-11.83,10.89-12.37,7.09-.61,13.03,4.89,13.03,11.76v-.51c0,6.16,4.57,11.67,10.79,12.25,7.13.67,13.14-4.85,13.14-11.75v.51c0-6.16,4.57-11.67,10.79-12.25,7.17-.67,13.2,4.9,13.14,11.85-.07,8.26,6.89,14.88,15.15,14.88h2.21C191.87,40.9,150.53,0,100,0Z"/>
      <g>
        <circle class="cls-1" cx="100" cy="48.75" r="3.75"/>
        <circle class="cls-1" cx="67.5" cy="16.25" r="3.75"/>
        <circle class="cls-3" cx="132.5" cy="16.25" r="3.75"/>
        <circle class="cls-5" cx="67.5" cy="48.75" r="3.75"/>
        <circle class="cls-5" cx="132.5" cy="48.75" r="3.75"/>
        <circle class="cls-4" cx="116.25" cy="32.5" r="3.75"/>
        <circle class="cls-1" cx="148.75" cy="32.5" r="3.75"/>
        <circle class="cls-5" cx="100" cy="16.25" r="3.75"/>
        <circle class="cls-3" cx="83.75" cy="32.5" r="3.75"/>
        <circle class="cls-4" cx="51.25" cy="32.5" r="3.75"/>
      </g>
    </g>
  </g>
</svg>