<?xml version="1.0" encoding="UTF-8"?>
<svg id="_레이어_2" data-name="레이어 2" xmlns="http://www.w3.org/2000/svg" viewBox="0 0 25.68 33.39">
  <defs>
    <style>
      .cls-1 {
        fill: #c6eee4;
      }

      .cls-1, .cls-2, .cls-3, .cls-4, .cls-5, .cls-6 {
        stroke-width: 0px;
      }

      .cls-2 {
        fill: #043446;
      }

      .cls-3 {
        fill: #fa6e54;
      }

      .cls-4 {
        fill: #fa9f03;
      }

      .cls-5 {
        fill: #9ddfdb;
      }

      .cls-6 {
        fill: #fcc402;
      }
    </style>
  </defs>
  <g id="source">
    <g>
      <path class="cls-2" d="M6.57.32c.88.55,1.33,1.34,1.3,2.37,0,.25.08.35.29.44,1.3.56,2.61,1.11,3.9,1.69,1.5.67,3.02,1.28,4.58,1.82,1.69.58,3.1,1.61,4.14,3.09.63.9,1.14,1.88,1.32,2.98.03.2.12.25.31.24.3-.02.59.01.89,0,1.15-.07,2.15.89,2.34,2.09.27,1.74-1.22,3.65-3.15,3.71-.06,0-.12-.02-.2.04.12.2.25.4.38.61.99,1.53,1.38,3.22,1.26,5.02-.12,1.77-.7,3.38-1.74,4.81-1.01,1.38-2.23,2.53-3.82,3.24-.02,0-.03.03-.05.05-.39.14-.78.3-1.17.43-.76.25-1.54.42-2.35.43-1.7,0-3.39.04-5.09,0-1.11-.03-2.14-.35-3.14-.8-.07-.03-.14-.06-.21-.09-1.46-.68-2.72-1.63-3.78-2.84C.92,27.73-.04,25.54,0,22.96c.02-1.35,0-2.7,0-4.05,0-.13.01-.26.04-.39.11-.43.53-.68.96-.58.26.06.45.22.61.42.32.4.65.79,1.08,1.09,1.01.68,2.08.84,3.22.4.12-.04.19-.08.12-.24-.38-.81-.47-1.68-.49-2.57-.04-1.95.07-3.9-.12-5.84-.2-1.93-.36-3.86-.54-5.79-.01-.14-.05-.22-.21-.28-1.38-.46-1.99-1.3-2.03-2.75C2.87,1.08,3.58.29,4.73.05c.65-.13,1.25,0,1.84.27ZM17.08,17.78h0s-.03-.04-.05-.06h0s-.02-.08-.06-.09c-.04-.07-.07-.14-.11-.21-1.19-2.06.42-4.56,2.51-4.48.31.01.63,0,.94,0,.29,0,.3-.01.22-.29-.41-1.48-1.26-2.65-2.47-3.58-.92-.71-2.02-1.05-3.1-1.44-.07-.02-.16-.02-.17.06-.01.13-.15.16-.19.26-.06.07-.13.14-.19.21-.82,1.1-1.78,2.08-2.89,2.89-1.31.96-2.71,1.75-4.28,2.21-.1.03-.2.06-.19.2.01.25-.03.5.03.75,0,1.05,0,2.1,0,3.16,0,.31.03.62.09.93.12.63.4,1.2.72,1.75.09.16.06.27-.05.39-.23.25-.53.4-.82.55-1.73.88-3.41.77-5.05-.25-.13-.08-.24-.2-.42-.21,0,.89.02,1.76,0,2.64-.02,1.02.16,1.99.53,2.93.58,1.45,1.49,2.63,2.93,3.28,2.17.99,5.42.72,7.39-1.54,1.63-1.87,2.26-4.85.25-7.17-.13-.15-.22-.31-.24-.51-.02-.27.08-.5.33-.63.31-.17.62-.15.91.07.23.17.4.41.57.64.38.53.65,1.12.9,1.72.01.17.07.33.14.49h-.01s.01.03.01.03c0,.09,0,.18.06.25h0c.07.6.1,1.18.07,1.77-.04.69-.21,1.36-.48,2-1.1,2.65-3.05,4.25-5.88,4.76-.46.08-.94.06-1.46.11.79.31,1.54.51,2.34.51,1.67,0,3.34,0,5.01,0,.27,0,.54-.02.8-.08,2.86-.63,4.88-2.31,6.07-4.96.63-1.42.77-2.93.43-4.47-.27-1.23-.88-2.28-1.68-3.23-.18-.21-.36-.31-.64-.3-.46.02-.92.05-1.38-.07-.58-.15-1.01-.52-1.42-.93h0s-.03-.04-.04-.06ZM4.42,1.91h0c-.38.4-.37,1.05.02,1.49.39.44,1.03.54,1.48.21.5-.36.65-.99.36-1.5-.37-.68-1.1-.88-1.63-.44-.06,0-.08.03-.1.08-.02.02-.04.04-.06.06-.05.01-.07.04-.07.09ZM6.44,5.19c-.03.52.06,1.03.14,1.54-.05.04-.05.09-.05.14.04.39.07.77.11,1.16.05.49.09.98.14,1.47-.03.42.04.83.09,1.24.03.27.06.54.08.8.02.2.08.26.29.19,1.01-.34,1.93-.83,2.82-1.4,1.28-.82,2.33-1.88,3.27-3.07.13-.16.13-.23-.08-.3-.27-.1-.52-.23-.78-.35-.36-.17-.71-.36-1.09-.47-.41-.22-.86-.33-1.27-.56-.39-.18-.76-.42-1.19-.51-.48-.18-.93-.44-1.42-.59-.15-.1-.28-.09-.41.05-.18.19-.39.35-.62.47-.08.04-.17.08-.05.18ZM21.33,14.44h0c-.63.01-1.25.01-1.88.01-1.21,0-1.7,1.22-1.31,2.1.25.55.66.84,1.29.82.76-.03,1.51,0,2.27-.02.31,0,.63.02.93-.07.79-.25,1.34-.74,1.51-1.57.14-.71-.36-1.27-1.07-1.27-.58,0-1.17,0-1.75,0Z"/>
      <path class="cls-6" d="M14.61,7.96c.04-.1.18-.13.19-.26,0-.08.1-.08.17-.06,1.08.38,2.18.73,3.1,1.44,1.21.92,2.06,2.1,2.47,3.58.08.28.07.29-.22.29-.31,0-.63.01-.94,0-2.09-.08-3.7,2.42-2.51,4.48.04.07.07.14.11.21,0,.04.02.08.06.09,0,0,0,0,0,0,.02.02.03.04.05.06,0,0,0,0,0,0,.01.02.03.04.04.06,0,0,0,0,0,0-.02.27.14.47.28.66.47.62,1,1.17,1.75,1.47.53.21,1.04.3,1.59.16.13-.03.17.04.21.13.56,1.06.63,2.21.53,3.37-.08.9-.36,1.76-.83,2.55-.36.61-.75,1.19-1.26,1.68-.46.44-.94.86-1.51,1.19-.64.38-1.31.66-2.02.87-.5.15-1.01.24-1.53.29-.52.05-1.04.07-1.57.1-.01-.12.07-.13.13-.17.41-.32.79-.69,1.11-1.1.41-.53.69-1.13.94-1.76.26-.67.33-1.38.45-2.08.09-.51.15-1.03.1-1.55-.03-.3.02-.61-.15-.88,0,0,0-.01,0-.01,0-.09.04-.19-.06-.25h-.01s.01-.03.01-.03c.01-.18-.05-.34-.14-.49-.25-.6-.52-1.19-.9-1.72-.17-.23-.34-.47-.57-.64-.28-.21-.59-.24-.91-.07-.25.14-.34.36-.33.63.01.2.11.37.24.51,2.01,2.32,1.38,5.3-.25,7.17-1.96,2.26-5.21,2.53-7.39,1.54-1.44-.66-2.36-1.83-2.93-3.28-.37-.94-.55-1.92-.53-2.93.02-.88,0-1.76,0-2.64.18.01.29.13.42.21,1.64,1.02,3.32,1.13,5.05.25.3-.15.59-.3.82-.55.11-.12.15-.23.05-.39-.32-.55-.6-1.12-.72-1.75-.06-.3-.09-.62-.09-.93-.01-1.05,0-2.1,0-3.16.95-.4,1.88-.83,2.78-1.35.8-.46,1.54-1.01,2.24-1.59,1.04-.86,1.84-1.93,2.45-3.14.03-.06.05-.13.04-.2ZM7.41,26.9s0,.01,0,.02c-.57,0-1.13,0-1.7,0-.49,0-.81.29-.81.72,0,.45.35.8.82.8,1.16,0,2.31,0,3.47,0,.26,0,.47-.1.63-.31.18-.25.22-.52.08-.79-.14-.29-.39-.44-.71-.44-.59,0-1.18,0-1.77,0ZM18.82,11.14c0-.21-.05-.4-.16-.57-.25-.39-.53-.75-.87-1.07-.63-.6-1.39-.97-2.19-1.28-.27-.11-.73.03-.91.27-.13.17-.05.59.15.8.12.13.28.17.44.22,1.06.31,1.9.88,2.35,1.93.15.34.41.49.69.42.27-.07.51-.41.51-.72ZM13.63,15.56c.62.01,1.18-.53,1.19-1.15,0-.63-.53-1.24-1.13-1.25-.66-.02-1.21.52-1.23,1.2-.01.64.52,1.19,1.17,1.2Z"/>
      <path class="cls-4" d="M15.35,22.76c.17.27.12.59.15.88.05.52-.01,1.04-.1,1.55-.12.7-.19,1.41-.45,2.08-.24.62-.52,1.23-.94,1.76-.32.41-.69.78-1.11,1.1-.05.04-.14.05-.13.17.52-.03,1.05-.04,1.57-.1.52-.05,1.03-.15,1.53-.29.71-.21,1.38-.49,2.02-.87.56-.33,1.04-.75,1.51-1.19.51-.49.9-1.07,1.26-1.68.47-.79.75-1.65.83-2.55.11-1.16.03-2.31-.53-3.37-.05-.09-.08-.16-.21-.13-.55.14-1.07.05-1.59-.16-.75-.3-1.28-.85-1.75-1.47-.14-.18-.3-.39-.28-.66.41.41.84.78,1.42.93.45.11.92.09,1.38.07.28-.01.47.09.64.3.8.96,1.41,2,1.68,3.23.33,1.54.2,3.05-.43,4.47-1.18,2.66-3.21,4.33-6.07,4.96-.26.06-.54.07-.8.08-1.67,0-3.34,0-5.01,0-.79,0-1.55-.19-2.34-.51.53-.05,1-.03,1.46-.11,2.83-.51,4.78-2.11,5.88-4.76.26-.64.44-1.3.48-2,.03-.59,0-1.17-.07-1.76Z"/>
      <path class="cls-3" d="M21.33,14.44c.58,0,1.17,0,1.75,0,.71,0,1.21.56,1.07,1.27-.17.83-.72,1.32-1.51,1.57-.3.1-.62.07-.93.07-.76.02-1.51,0-2.27.02-.63.02-1.04-.27-1.29-.82-.39-.88.1-2.09,1.31-2.1.63,0,1.25,0,1.88,0h0Z"/>
      <path class="cls-3" d="M12.49,6.6c.26.12.52.25.78.35.2.08.2.15.08.3-.94,1.18-1.99,2.25-3.27,3.07-.89.57-1.81,1.07-2.82,1.4-.22.07-.28,0-.29-.19-.02-.27-.05-.54-.08-.8,1.23-.51,2.35-1.19,3.39-2.01.8-.63,1.56-1.32,2.22-2.11Z"/>
      <path class="cls-1" d="M12.49,6.6c-.66.79-1.41,1.48-2.22,2.11-1.04.82-2.17,1.5-3.39,2.01-.05-.41-.12-.82-.09-1.24.05-.02.1-.03.15-.05,1.18-.56,2.29-1.24,3.25-2.14.41-.38.87-.72,1.22-1.17.39.1.73.3,1.09.47Z"/>
      <path class="cls-5" d="M11.39,6.14c-.35.45-.8.79-1.22,1.17-.96.89-2.06,1.58-3.25,2.14-.05.02-.1.03-.15.05-.05-.49-.09-.98-.14-1.47.13-.04.27-.08.39-.13.82-.35,1.52-.89,2.2-1.46.32-.26.65-.51.89-.86.4.23.86.34,1.27.56Z"/>
      <path class="cls-4" d="M14.61,7.96c.01.07,0,.14-.04.2-.62,1.2-1.41,2.27-2.45,3.14-.71.59-1.44,1.13-2.24,1.59-.9.51-1.83.94-2.78,1.35-.06-.25-.02-.5-.03-.75,0-.14.09-.17.19-.2,1.57-.46,2.97-1.25,4.28-2.21,1.11-.81,2.06-1.79,2.89-2.89.06-.08.13-.14.19-.21Z"/>
      <path class="cls-1" d="M10.13,5.58c-.24.34-.57.59-.89.86-.68.56-1.38,1.1-2.2,1.46-.13.05-.26.09-.39.13-.04-.39-.07-.77-.11-1.16,0-.05,0-.1.05-.14.49-.18.94-.45,1.35-.77.35-.27.73-.53,1.01-.88.43.08.8.33,1.19.51Z"/>
      <path class="cls-5" d="M8.94,5.07c-.28.36-.66.61-1.01.88-.41.32-.86.59-1.35.77-.08-.51-.17-1.02-.14-1.54.44-.11.84-.29,1.08-.71.49.15.94.41,1.42.59Z"/>
      <path class="cls-4" d="M6.28,2.11c.29.51.14,1.14-.36,1.5-.45.32-1.09.23-1.48-.21-.39-.44-.39-1.09-.02-1.49-.05.58.26.98.78,1,.51.02.86-.24,1.07-.79Z"/>
      <path class="cls-6" d="M6.28,2.11c-.21.55-.57.81-1.07.79-.52-.02-.83-.42-.78-1,0,0,0,0,0,0,.05-.01.07-.04.07-.09.02-.02.04-.04.06-.06.05,0,.09-.03.1-.08.53-.44,1.26-.25,1.63.44Z"/>
      <path class="cls-4" d="M7.52,4.48c-.24.42-.64.6-1.08.71-.12-.1-.03-.14.05-.18.23-.12.44-.28.62-.47.13-.14.26-.15.41-.05Z"/>
      <path class="cls-4" d="M15.14,21.98c.09.15.16.31.14.49-.07-.16-.13-.32-.14-.49Z"/>
      <path class="cls-4" d="M15.28,22.5c.09.07.06.16.06.25-.06-.08-.06-.16-.06-.25Z"/>
      <path class="cls-4" d="M4.65,1.67c0,.05-.04.08-.1.08.01-.05.04-.08.1-.08Z"/>
      <path class="cls-4" d="M4.49,1.81s-.03.08-.07.09c0-.05.03-.08.07-.09Z"/>
      <path class="cls-4" d="M17.04,17.72s-.06-.05-.06-.09c.04.02.06.05.06.09Z"/>
      <path class="cls-4" d="M17.09,17.78s-.03-.04-.05-.06c.02.02.03.04.05.06Z"/>
      <path class="cls-4" d="M17.13,17.84s-.03-.04-.04-.06c.01.02.03.04.04.06Z"/>
      <path class="cls-2" d="M7.41,26.9c.59,0,1.18,0,1.77,0,.32,0,.57.15.71.44.13.27.09.54-.08.79-.15.21-.36.31-.63.31-1.16,0-2.31,0-3.47,0-.48,0-.82-.35-.82-.8,0-.43.32-.72.81-.72.57,0,1.13,0,1.7,0,0,0,0-.01,0-.02Z"/>
      <path class="cls-1" d="M18.82,11.14c0,.31-.24.65-.51.72-.28.07-.54-.08-.69-.42-.45-1.05-1.29-1.63-2.35-1.93-.16-.05-.32-.09-.44-.22-.2-.21-.28-.63-.15-.8.18-.24.64-.38.91-.27.8.32,1.56.68,2.19,1.28.33.32.62.68.87,1.07.11.17.16.36.16.57Z"/>
      <path class="cls-2" d="M13.63,15.56c-.64-.01-1.18-.57-1.17-1.2.01-.68.57-1.22,1.23-1.2.6.02,1.14.62,1.13,1.25,0,.62-.57,1.16-1.19,1.15Z"/>
    </g>
  </g>
</svg>